<svg xmlns="http://www.w3.org/2000/svg" viewBox="0 0 1865.64 2032.2" width="1865.64" height="2032.2">
  <path fill="#0D1220" d="M986.68.66l91.49-.66c242.01,11.09,472.55,102.99,655.63,260.03,41.66,35.73,101.35,89.78,120.5,141.4,45.76,123.36-65.97,240.94-190.96,202.95-54.39-16.53-93.5-71.7-135.46-108.45-320.54-280.64-819.51-237.48-1075.4,106.08-164.02,220.22-181.94,525.19-43.5,762.91,236.01,405.25,794.64,472.29,1135.96,157.62,19.46-17.94,37.22-39.62,56.89-57.07,143.75-127.52,353,51.73,222.93,216.93-82.58,104.88-238.56,208.21-360.46,261.3C829.49,2220.2,78.75,1821.7,5.68,1124.46-56.52,530.93,399.65,29.1,986.68.66Z"></path>
  <path fill="#079C79" d="M1024.56,494.37c26.21-4.46,54.26,10.24,56.59,38.43l-.06,963.75c-8.62,52.32-85.87,50.54-90.07-3.94l.05-959.74c1.73-17.18,16.06-35.53,33.48-38.49Z"></path>
  <path fill="#0E9FCE" d="m 876.77,614.32 c 20.41,-1.59 44.36,14.05 47.9,34.99 2.31,13.69 3.03207,27.90414 3.10207,41.23414 0.42,78.22 -0.15207,156.08586 -0.55207,234.28586 -0.51,100.26 -0.81,200.85 0,301.71 0.35,43.94 3.3,97.15 -0.09,140.03 -2.92,36.94 -37.91,62.04 -71.36,41.38 -21.52,-13.29 -20.19,-32.89 -22.69,-55.28 l 0.09,-673.84 c -0.0755,-10.45345 0.85,-19.83 2.47,-29.52 3.06,-18.26 23.36,-33.61 41.13,-34.99 z"></path>
  <path fill="#0E9FCE" d="M1188.57,614.33c22.16-2.62,47.97,17.47,48.53,40.43-1.05,208.97,1.77,417.34-.17,625.94,1.89,29.39,3.15,66.58.11,95.89-5,48.15-78.32,51.19-89.53,3.53l-.47-727.29c2.76-20.59,21.41-36.11,41.54-38.49Z"></path>
  <path fill="#2E63D8" d="M691.9,1292.92c-6.57-6.57-12.27-18.76-12.76-28.23-.09-142.01.37-284.01.17-426.01-.03-24.01-2.63-49.58-.11-73.9,5.36-51.84,86.61-53.44,91.97,8.03v485.8c-.24,40.77-49.88,63.71-79.28,34.32Z"></path>
  <path fill="#2E63D8" d="M1342.48,726.33c27.12-3.56,51.54,17.04,52.56,44.39l-.08,491.89c-5.51,57.72-87.34,58.75-92.05-3.91l.08-489.9c2.08-21.94,17.22-39.55,39.49-42.47Z"></path>
  <path fill="#5B3BE0" d="M562.77,868.28c24.86-3.22,48.55,13.68,52.5,38.45l-.18,221.78c-8.5,43.43-67.39,51.45-87.45,11.8-8.05-15.92-4.01-55.96-4.26-75.71-.22-17.43-.22-34.36,0-51.8.42-32.78-3.53-74.48.11-105.85,2.31-19.87,19.72-36.14,39.28-38.67Z"></path>
  <path fill="#5B3BE0" d="M1498.53,868.3c19.09-1.38,43.95,13.29,47.94,32.89,1.22,6,2.17,20.59,2.52,27.47,2.77,54.53,3.52,129.95,0,184.11-1.33,20.54-6.35,40.23-26.71,49.26-29.41,13.04-60.51-3.66-65.36-35.34l.18-221.78c4.7-21.24,19.5-35.03,41.44-36.61Z"></path>
</svg>
